___________________________________________________________________________________

Transformers Trilogy 1080p Encoded in Small Size I.E. just 5.24 GiB
___________________________________________________________________________________

Info:
-----------------------------------------------------------------------------------

Transformers [1]

General                                  : Transformers
Complete name                            : 
Format                                   : MPEG-4
Format profile                           : Base Media / Version 2
Codec ID                                 : mp42
File size                                : 1.79 GiB
Duration                                 : 2h 23mn
Overall bit rate mode                    : Variable
Overall bit rate                         : 1 781 Kbps
Encoded date                             : UTC 2011-11-06 09:08:42
Tagged date                              : UTC 2011-11-06 09:11:44
Writing application                      : mp4creator 1.6.1d

Video
ID                                       : 1
Format                                   : AVC
Format/Info                              : Advanced Video Codec
Format profile                           : High@L4.0
Format settings, CABAC                   : Yes
Format settings, ReFrames                : 4 frames
Codec ID                                 : avc1
Codec ID/Info                            : Advanced Video Coding
Duration                                 : 2h 23mn
Bit rate mode                            : Variable
Bit rate                                 : 1 744 Kbps
Width                                    : 1 920 pixels
Height                                   : 800 pixels
Display aspect ratio                     : 2.40:1
Frame rate mode                          : Variable
Frame rate                               : 23.976 fps
Minimum frame rate                       : 23.974 fps
Maximum frame rate                       : 23.981 fps
Color space                              : YUV
Chroma subsampling                       : 4:2:0
Bit depth                                : 8 bits
Scan type                                : Progressive
Bits/(Pixel*Frame)                       : 0.047
Stream size                              : 1.75 GiB (98%)
Language                                 : English
Encoded date                             : UTC 2011-11-06 09:08:42
Tagged date                              : UTC 2011-11-06 09:11:02

Audio
ID                                       : 2
Format                                   : AAC
Format/Info                              : Advanced Audio Codec
Format profile                           : HE-AAC / LC
Codec ID                                 : 40
Duration                                 : 2h 15mn
Bit rate mode                            : Variable
Bit rate                                 : 36.0 Kbps
Maximum bit rate                         : 57.6 Kbps
Channel(s)                               : 2 channels
Channel positions                        : Front: L R
Sampling rate                            : 48.0 KHz / 24.0 KHz
Compression mode                         : Lossy
Stream size                              : 35.0 MiB (2%)
Language                                 : English
Encoded date                             : UTC 2011-11-06 09:11:42
Tagged date                              : UTC 2011-11-06 09:11:44

Subtitles                                : Yes
Format                                   : SRT
Language                                 : English
-----------------------------------------------------------------------------------

Transformers [2] - Revenge Of The Fallen

General
Complete name                            : Transformers : Revenge Of The Fallen
Format                                   : MPEG-4
Format profile                           : Base Media
Codec ID                                 : isom
File size                                : 1.75 GiB
Duration                                 : 2h 30mn
Overall bit rate mode                    : Variable
Overall bit rate                         : 1 670 Kbps
Encoded date                             : UTC 2011-11-01 08:41:55
Tagged date                              : UTC 2011-11-01 08:41:55

Video
ID                                       : 1
Format                                   : AVC
Format/Info                              : Advanced Video Codec
Format profile                           : High@L4.0
Format settings, CABAC                   : Yes
Format settings, ReFrames                : 4 frames
Codec ID                                 : avc1
Codec ID/Info                            : Advanced Video Coding
Duration                                 : 2h 30mn
Bit rate                                 : 1 615 Kbps
Maximum bit rate                         : 6 638 Kbps
Width                                    : 1 920 pixels
Height                                   : 800 pixels
Display aspect ratio                     : 2.40:1
Frame rate mode                          : Constant
Frame rate                               : 23.976 fps
Color space                              : YUV
Chroma subsampling                       : 4:2:0
Bit depth                                : 8 bits
Scan type                                : Progressive
Bits/(Pixel*Frame)                       : 0.044
Stream size                              : 1.69 GiB (97%)
Writing library                          : x264 core 116 r2074 2641b9e
Encoded date                             : UTC 2011-11-01 08:41:55
Tagged date                              : UTC 2011-11-01 08:46:17

Audio
ID                                       : 2
Format                                   : AAC
Format/Info                              : Advanced Audio Codec
Format profile                           : HE-AAC / LC
Codec ID                                 : 40
Duration                                 : 2h 30mn
Bit rate mode                            : Variable
Bit rate                                 : 53.9 Kbps
Maximum bit rate                         : 73.5 Kbps
Channel(s)                               : 2 channels
Channel positions                        : Front: L R
Sampling rate                            : 48.0 KHz / 24.0 KHz
Compression mode                         : Lossy
Stream size                              : 58.0 MiB (3%)
Encoded date                             : UTC 2011-11-01 08:46:13
Tagged date                              : UTC 2011-11-01 08:46:17

Subtitles                                : Yes
Format                                   : SRT
Language                                 : English
-----------------------------------------------------------------------------------

Transformers [3] - Dark Of The Moon

General
Complete name                            : Transformers : Dark Of The Moon
Format                                   : MPEG-4
Format profile                           : Base Media
Codec ID                                 : isom
File size                                : 1.71 GiB
Duration                                 : 2h 34mn
Overall bit rate mode                    : Variable
Overall bit rate                         : 1 582 Kbps
Encoded date                             : UTC 2011-10-02 09:15:57
Tagged date                              : UTC 2011-10-02 09:15:57

Video
ID                                       : 1
Format                                   : AVC
Format/Info                              : Advanced Video Codec
Format profile                           : High@L4.0
Format settings, CABAC                   : Yes
Format settings, ReFrames                : 5 frames
Codec ID                                 : avc1
Codec ID/Info                            : Advanced Video Coding
Duration                                 : 2h 34mn
Bit rate                                 : 1 547 Kbps
Maximum bit rate                         : 8 177 Kbps
Width                                    : 1 920 pixels
Height                                   : 800 pixels
Display aspect ratio                     : 2.40:1
Frame rate mode                          : Constant
Frame rate                               : 23.976 fps
Color space                              : YUV
Chroma subsampling                       : 4:2:0
Bit depth                                : 8 bits
Scan type                                : Progressive
Bits/(Pixel*Frame)                       : 0.042
Stream size                              : 1.67 GiB (98%)
Writing library                          : x264 core 116 r2074 2641b9e
Encoded date                             : UTC 2011-10-02 09:15:57
Tagged date                              : UTC 2011-10-02 09:16:16

Audio
ID                                       : 2
Format                                   : AAC
Format/Info                              : Advanced Audio Codec
Format profile                           : HE-AAC / LC
Codec ID                                 : 40
Duration                                 : 2h 34mn
Bit rate mode                            : Variable
Bit rate                                 : 32.0 Kbps
Maximum bit rate                         : 41.0 Kbps
Channel(s)                               : 2 channels
Channel positions                        : Front: L R
Sampling rate                            : 48.0 KHz / 24.0 KHz
Compression mode                         : Lossy
Stream size                              : 35.3 MiB (2%)
Encoded date                             : UTC 2011-10-02 09:16:16
Tagged date                              : UTC 2011-10-02 09:16:16

Subtitles                                : Yes
Format                                   : SRT
Language                                 : English
___________________________________________________________________________________

Plz Don't Kill The Torrent Guyz, Seed It As Long As Possible
___________________________________________________________________________________

Plz Add A +1 To The Quality If You Like It. Any Movie/TV Show Requests Are Welcome.

I'll Try To Encode Them As Soon As Possible.
___________________________________________________________________________________

Plz See My Other Torrents At The Below Link:
 
http://www.thepiratebay.org/user/nexuswolf/
___________________________________________________________________________________

Plz Comment On Quality....I Beg Of You. A/V
___________________________________________________________________________________

- Nexus Wolfsbane Wolf
___________________________________________________________________________________


